{
	"asset":{
		"generator":"Khronos glTF Blender I/O v4.2.57",
		"version":"2.0"
	},
	"extensionsUsed":[
		"KHR_materials_specular",
		"KHR_materials_ior"
	],
	"scene":0,
	"scenes":[
		{
			"name":"Scene",
			"nodes":[
				0,
				1,
				2,
				7
			]
		}
	],
	"nodes":[
		{
			"mesh":0,
			"name":"Cube.001",
			"scale":[
				0.02359362691640854,
				0.02359362691640854,
				0.02359362691640854
			],
			"translation":[
				-2.612656680867076e-05,
				-0.10223788022994995,
				0
			]
		},
		{
			"mesh":1,
			"name":"Cube.002",
			"scale":[
				0.02359362691640854,
				0.02359362691640854,
				0.02359362691640854
			],
			"translation":[
				-2.612656680867076e-05,
				-0.10223788022994995,
				0
			]
		},
		{
			"mesh":2,
			"name":"NurbsPath.003",
			"rotation":[
				0,
				0.70710688829422,
				-0.7071066498756409,
				5.88204773777079e-09
			],
			"scale":[
				0.02267712913453579,
				0.11836816370487213,
				0.11836816370487213
			],
			"translation":[
				0.00038641647552140057,
				-0.027490904554724693,
				0.014556698501110077
			]
		},
		{
			"mesh":3,
			"name":"Cube.003",
			"translation":[
				0.013573439791798592,
				-0.0005435757339000702,
				-0.08081977814435959
			]
		},
		{
			"mesh":4,
			"name":"Retopo_Sunglass.004",
			"translation":[
				3.4822132874978706e-05,
				-0.02059660479426384,
				0
			]
		},
		{
			"mesh":5,
			"name":"Retopo_Sunglass.009",
			"translation":[
				-0.0034308303147554398,
				-0.0018743090331554413,
				0
			]
		},
		{
			"mesh":6,
			"name":"Sunglass.022",
			"translation":[
				0.0015506879426538944,
				-0.02209637686610222,
				-0.010005049407482147
			]
		},
		{
			"children":[
				3,
				4,
				5,
				6
			],
			"mesh":7,
			"name":"Retopo_Sunglass.003",
			"rotation":[
				0,
				0.7071068286895752,
				0,
				0.7071068286895752
			],
			"translation":[
				0.0004121027886867523,
				0.0496429018676281,
				0.005585027858614922
			]
		}
	],
	"materials":[
		{
			"doubleSided":true,
			"name":"BowtieMat",
			"pbrMetallicRoughness":{
				"baseColorTexture":{
					"index":0
				},
				"metallicFactor":0,
				"roughnessFactor":0.5
			}
		},
		{
			"doubleSided":true,
			"name":"Material.002",
			"pbrMetallicRoughness":{
				"metallicFactor":0,
				"roughnessFactor":0.5
			}
		},
		{
			"doubleSided":true,
			"extensions":{
				"KHR_materials_specular":{
					"specularColorFactor":[
						1.4109091758728027,
						1.4109091758728027,
						1.4109091758728027
					]
				},
				"KHR_materials_ior":{
					"ior":1.4500000476837158
				}
			},
			"name":"Scuffed Titanium PBR",
			"pbrMetallicRoughness":{
				"baseColorFactor":[
					0.031017571687698364,
					0.029392197728157043,
					0.025842376053333282,
					1
				],
				"metallicFactor":0.4724409580230713,
				"roughnessFactor":0.058181822299957275
			}
		}
	],
	"meshes":[
		{
			"name":"Cube.001",
			"primitives":[
				{
					"attributes":{
						"POSITION":0,
						"NORMAL":1,
						"TEXCOORD_0":2
					},
					"indices":3,
					"material":0
				}
			]
		},
		{
			"name":"Cube.004",
			"primitives":[
				{
					"attributes":{
						"POSITION":4,
						"NORMAL":5,
						"TEXCOORD_0":6
					},
					"indices":7,
					"material":0
				}
			]
		},
		{
			"name":"NurbsPath.001",
			"primitives":[
				{
					"attributes":{
						"POSITION":8,
						"NORMAL":9,
						"TEXCOORD_0":10
					},
					"indices":11,
					"material":1
				}
			]
		},
		{
			"name":"Cube.009",
			"primitives":[
				{
					"attributes":{
						"POSITION":12,
						"NORMAL":13,
						"TEXCOORD_0":14
					},
					"indices":15,
					"material":2
				}
			]
		},
		{
			"name":"mesh.002",
			"primitives":[
				{
					"attributes":{
						"POSITION":16,
						"NORMAL":17
					},
					"indices":18,
					"material":2
				}
			]
		},
		{
			"name":"mesh",
			"primitives":[
				{
					"attributes":{
						"POSITION":19,
						"NORMAL":20
					},
					"indices":21,
					"material":2
				}
			]
		},
		{
			"name":"Sunglass.003",
			"primitives":[
				{
					"attributes":{
						"POSITION":22,
						"NORMAL":23,
						"TEXCOORD_0":24
					},
					"indices":25,
					"material":2
				}
			]
		},
		{
			"name":"mesh.004",
			"primitives":[
				{
					"attributes":{
						"POSITION":26,
						"NORMAL":27
					},
					"indices":28,
					"material":2
				}
			]
		}
	],
	"textures":[
		{
			"sampler":0,
			"source":0
		}
	],
	"images":[
		{
			"mimeType":"image/jpeg",
			"name":"BowtieMat_albedo",
			"uri":"BowtieMat_albedo.jpg"
		}
	],
	"accessors":[
		{
			"bufferView":0,
			"componentType":5126,
			"count":1480,
			"max":[
				0.5184453725814819,
				0.5083082318305969,
				0.6279837489128113
			],
			"min":[
				-0.5184453725814819,
				-0.7188355326652527,
				-0.12333882600069046
			],
			"type":"VEC3"
		},
		{
			"bufferView":1,
			"componentType":5126,
			"count":1480,
			"type":"VEC3"
		},
		{
			"bufferView":2,
			"componentType":5126,
			"count":1480,
			"type":"VEC2"
		},
		{
			"bufferView":3,
			"componentType":5123,
			"count":6978,
			"type":"SCALAR"
		},
		{
			"bufferView":4,
			"componentType":5126,
			"count":2674,
			"max":[
				2.5447332859039307,
				1.2505017518997192,
				0.49726665019989014
			],
			"min":[
				-2.5447332859039307,
				-1.366175889968872,
				-0.01824810728430748
			],
			"type":"VEC3"
		},
		{
			"bufferView":5,
			"componentType":5126,
			"count":2674,
			"type":"VEC3"
		},
		{
			"bufferView":6,
			"componentType":5126,
			"count":2674,
			"type":"VEC2"
		},
		{
			"bufferView":7,
			"componentType":5123,
			"count":14880,
			"type":"SCALAR"
		},
		{
			"bufferView":8,
			"componentType":5126,
			"count":31850,
			"max":[
				3.68999981880188,
				0.16869021952152252,
				0.23103858530521393
			],
			"min":[
				-3.689999580383301,
				2.9571824100571575e-08,
				-0.16083621978759766
			],
			"type":"VEC3"
		},
		{
			"bufferView":9,
			"componentType":5126,
			"count":31850,
			"type":"VEC3"
		},
		{
			"bufferView":10,
			"componentType":5126,
			"count":31850,
			"type":"VEC2"
		},
		{
			"bufferView":11,
			"componentType":5123,
			"count":184782,
			"type":"SCALAR"
		},
		{
			"bufferView":12,
			"componentType":5126,
			"count":988,
			"max":[
				0.0007726739277131855,
				0.002823387738317251,
				0.16248741745948792
			],
			"min":[
				-0.00626680301502347,
				-0.002261215355247259,
				-0.0008478221716359258
			],
			"type":"VEC3"
		},
		{
			"bufferView":13,
			"componentType":5126,
			"count":988,
			"type":"VEC3"
		},
		{
			"bufferView":14,
			"componentType":5126,
			"count":988,
			"type":"VEC2"
		},
		{
			"bufferView":15,
			"componentType":5123,
			"count":5832,
			"type":"SCALAR"
		},
		{
			"bufferView":16,
			"componentType":5126,
			"count":10248,
			"max":[
				0.0062837665900588036,
				0.025662707164883614,
				0.07263733446598053
			],
			"min":[
				-0.0060813892632722855,
				-0.028872963041067123,
				-0.0726374164223671
			],
			"type":"VEC3"
		},
		{
			"bufferView":17,
			"componentType":5126,
			"count":10248,
			"type":"VEC3"
		},
		{
			"bufferView":18,
			"componentType":5123,
			"count":55632,
			"type":"SCALAR"
		},
		{
			"bufferView":19,
			"componentType":5126,
			"count":36,
			"max":[
				0.002018287079408765,
				0.0021882220171391964,
				0.007175813429057598
			],
			"min":[
				-0.002192040206864476,
				-0.0021173458080738783,
				-0.007175813429057598
			],
			"type":"VEC3"
		},
		{
			"bufferView":20,
			"componentType":5126,
			"count":36,
			"type":"VEC3"
		},
		{
			"bufferView":21,
			"componentType":5123,
			"count":192,
			"type":"SCALAR"
		},
		{
			"bufferView":22,
			"componentType":5126,
			"count":2828,
			"max":[
				0.0036066703032702208,
				0.020893236622214317,
				0.002467833459377289
			],
			"min":[
				-0.00399774219840765,
				-0.008291981182992458,
				-0.0026292551774531603
			],
			"type":"VEC3"
		},
		{
			"bufferView":23,
			"componentType":5126,
			"count":2828,
			"type":"VEC3"
		},
		{
			"bufferView":24,
			"componentType":5126,
			"count":2828,
			"type":"VEC2"
		},
		{
			"bufferView":25,
			"componentType":5123,
			"count":15336,
			"type":"SCALAR"
		},
		{
			"bufferView":26,
			"componentType":5126,
			"count":136,
			"max":[
				0.011530508287250996,
				0.0095130056142807,
				0.08489882946014404
			],
			"min":[
				-0.00798900704830885,
				-0.01422693207859993,
				-0.08489882946014404
			],
			"type":"VEC3"
		},
		{
			"bufferView":27,
			"componentType":5126,
			"count":136,
			"type":"VEC3"
		},
		{
			"bufferView":28,
			"componentType":5123,
			"count":792,
			"type":"SCALAR"
		}
	],
	"bufferViews":[
		{
			"buffer":0,
			"byteLength":17760,
			"byteOffset":0,
			"target":34962
		},
		{
			"buffer":0,
			"byteLength":17760,
			"byteOffset":17760,
			"target":34962
		},
		{
			"buffer":0,
			"byteLength":11840,
			"byteOffset":35520,
			"target":34962
		},
		{
			"buffer":0,
			"byteLength":13956,
			"byteOffset":47360,
			"target":34963
		},
		{
			"buffer":0,
			"byteLength":32088,
			"byteOffset":61316,
			"target":34962
		},
		{
			"buffer":0,
			"byteLength":32088,
			"byteOffset":93404,
			"target":34962
		},
		{
			"buffer":0,
			"byteLength":21392,
			"byteOffset":125492,
			"target":34962
		},
		{
			"buffer":0,
			"byteLength":29760,
			"byteOffset":146884,
			"target":34963
		},
		{
			"buffer":0,
			"byteLength":382200,
			"byteOffset":176644,
			"target":34962
		},
		{
			"buffer":0,
			"byteLength":382200,
			"byteOffset":558844,
			"target":34962
		},
		{
			"buffer":0,
			"byteLength":254800,
			"byteOffset":941044,
			"target":34962
		},
		{
			"buffer":0,
			"byteLength":369564,
			"byteOffset":1195844,
			"target":34963
		},
		{
			"buffer":0,
			"byteLength":11856,
			"byteOffset":1565408,
			"target":34962
		},
		{
			"buffer":0,
			"byteLength":11856,
			"byteOffset":1577264,
			"target":34962
		},
		{
			"buffer":0,
			"byteLength":7904,
			"byteOffset":1589120,
			"target":34962
		},
		{
			"buffer":0,
			"byteLength":11664,
			"byteOffset":1597024,
			"target":34963
		},
		{
			"buffer":0,
			"byteLength":122976,
			"byteOffset":1608688,
			"target":34962
		},
		{
			"buffer":0,
			"byteLength":122976,
			"byteOffset":1731664,
			"target":34962
		},
		{
			"buffer":0,
			"byteLength":111264,
			"byteOffset":1854640,
			"target":34963
		},
		{
			"buffer":0,
			"byteLength":432,
			"byteOffset":1965904,
			"target":34962
		},
		{
			"buffer":0,
			"byteLength":432,
			"byteOffset":1966336,
			"target":34962
		},
		{
			"buffer":0,
			"byteLength":384,
			"byteOffset":1966768,
			"target":34963
		},
		{
			"buffer":0,
			"byteLength":33936,
			"byteOffset":1967152,
			"target":34962
		},
		{
			"buffer":0,
			"byteLength":33936,
			"byteOffset":2001088,
			"target":34962
		},
		{
			"buffer":0,
			"byteLength":22624,
			"byteOffset":2035024,
			"target":34962
		},
		{
			"buffer":0,
			"byteLength":30672,
			"byteOffset":2057648,
			"target":34963
		},
		{
			"buffer":0,
			"byteLength":1632,
			"byteOffset":2088320,
			"target":34962
		},
		{
			"buffer":0,
			"byteLength":1632,
			"byteOffset":2089952,
			"target":34962
		},
		{
			"buffer":0,
			"byteLength":1584,
			"byteOffset":2091584,
			"target":34963
		}
	],
	"samplers":[
		{
			"magFilter":9729,
			"minFilter":9987
		}
	],
	"buffers":[
		{
			"byteLength":2093168,
			"uri":"BIgote%20y%20Gafas.bin"
		}
	]
}
